<svg xmlns="http://www.w3.org/2000/svg" viewBox="0 0 640 520">
<rect width="640" height="520" fill="none"/>
<g fill="none" stroke="#0B6186" stroke-width="7" stroke-linecap="round" stroke-linejoin="round">
<circle cx="320" cy="225" r="178" stroke="#8CCDE6" stroke-width="4"/>
<path d="M274 102h92v39l-18 30v61l84 143H208l84-143v-61l-18-30z" fill="white"/>
<path d="M292 141h56"/>
<path d="M244 307c34-18 66 13 98 13 28 0 49-22 65-20"/>
<path d="M235 307h176l31 54H204z" fill="#EAF6FB" opacity=".9"/>
<path d="M487 200h52v166h-52z" fill="white"/>
<path d="M500 236h26M500 268h26M500 300h26M500 332h26"/>
<path d="M161 340c16-46 52-65 86-41-8 35-40 55-86 41z" fill="white"/>
<path d="M191 332c23-23 39-34 59-40"/>
<path d="M322 236c0 15-11 26-24 26s-24-11-24-26c0-10 10-23 24-40 14 17 24 30 24 40z" fill="#EAF6FB"/>
</g>
<g fill="#073E56" font-family="Arial, Helvetica, sans-serif">
<text x="320" y="454" text-anchor="middle" font-size="42" font-weight="700">SUA FÓRMULA</text>
<text x="320" y="486" text-anchor="middle" font-size="17">Desenvolvimento técnico para uma formulação própria.</text>
<text x="320" y="512" text-anchor="middle" font-size="15" font-weight="700" fill="#0B6186">FORMULAÇÕES EXCLUSIVAS</text>
</g></svg>